<svg xmlns="http://www.w3.org/2000/svg" viewBox="0 0 128 128">
  <rect x="14" y="24" width="100" height="92" rx="8" fill="#fff" stroke="#1e293b" stroke-width="3"/>
  <rect x="14" y="24" width="100" height="22" rx="8" fill="#dc2626"/>
  <rect x="14" y="36" width="100" height="10" fill="#dc2626"/>
  <rect x="32" y="14" width="10" height="22" rx="3" fill="#1e293b"/>
  <rect x="86" y="14" width="10" height="22" rx="3" fill="#1e293b"/>
  <g stroke="#cbd5e1" stroke-width="1.5">
    <line x1="22" y1="60" x2="106" y2="60"/>
    <line x1="22" y1="76" x2="106" y2="76"/>
    <line x1="22" y1="92" x2="106" y2="92"/>
    <line x1="40" y1="54" x2="40" y2="110"/>
    <line x1="56" y1="54" x2="56" y2="110"/>
    <line x1="72" y1="54" x2="72" y2="110"/>
    <line x1="88" y1="54" x2="88" y2="110"/>
  </g>
  <rect x="56" y="76" width="16" height="16" fill="#fef3c7"/>
  <rect x="54" y="74" width="20" height="20" fill="none" stroke="#dc2626" stroke-width="4"/>
  <circle cx="64" cy="84" r="3" fill="#dc2626"/>
</svg>
